<svg version="1.1" viewBox="0.0 0.0 290 230" fill="none" stroke="none" stroke-linecap="square" stroke-miterlimit="10" xmlns:xlink="http://www.w3.org/1999/xlink" xmlns="http://www.w3.org/2000/svg"><clipPath id="p.0"><path d="m0 0l290.80316 0l0 226.04199l-290.80316 0l0 -226.04199z" clip-rule="nonzero"/></clipPath><g clip-path="url(#p.0)"><path fill="#000000" fill-opacity="0.0" d="m0 0l290.80316 0l0 226.04199l-290.80316 0z" fill-rule="evenodd"/><path fill="#434343" d="m145.40158 9.682415l-92.5354 73.87474l0 59.21116l92.5354 73.87474l92.535385 -73.87474l0 -59.21116z" fill-rule="evenodd"/><path stroke="#ffffff" stroke-width="1.0" stroke-linejoin="round" stroke-linecap="butt" d="m145.40158 9.682415l-92.5354 73.87474l0 59.21116l92.5354 73.87474l92.535385 -73.87474l0 -59.21116z" fill-rule="evenodd"/><path fill="#000000" fill-opacity="0.0" d="m58.110237 25.761154l174.58267 0l0 174.51968l-174.58267 0z" fill-rule="evenodd"/><path fill="#ffffff" d="m121.90157 159.101l-11.25 0l0 -71.6875q-4.0625 3.875 -10.65625 7.75q-6.59375 3.875 -11.84375 5.8125l0 -10.875q9.4375 -4.4375 16.5 -10.75q7.0625 -6.3125 10.0 -12.25l7.25 0l0 92.0zm28.812492 -45.1875q0 -16.25 3.34375 -26.15625q3.34375 -9.90625 9.9375 -15.28125q6.59375 -5.375 16.59375 -5.375q7.375 0 12.9375 2.96875q5.5625 2.96875 9.1875 8.5625q3.625 5.59375 5.6875 13.625q2.0625 8.03125 2.0625 21.65625q0 16.125 -3.3125 26.03125q-3.3125 9.90625 -9.90625 15.3125q-6.59375 5.40625 -16.65625 5.40625q-13.25 0 -20.8125 -9.5q-9.0625 -11.4375 -9.0625 -37.25zm11.5625 0q0 22.5625 5.28125 30.03125q5.28125 7.46875 13.03125 7.46875q7.75 0 13.03125 -7.5q5.28125 -7.5 5.28125 -30.0q0 -22.625 -5.28125 -30.0625q-5.28125 -7.4375 -13.15625 -7.4375q-7.75 0 -12.375 6.5625q-5.8125 8.375 -5.8125 30.9375z" fill-rule="nonzero"/></g></svg>