<?xml version="1.0" encoding="UTF-8" standalone="no"?>
<svg
   version="1.1"
   id="Layer_1"
   x="0px"
   y="0px"
   width="300"
   height="420"
   viewBox="0 0 300 420"
   enable-background="new 0 0 1400 980"
   xml:space="preserve"
   sodipodi:docname="pokerKCKCBack.svg"
   inkscape:version="1.1.1 (3bf5ae0d25, 2021-09-20)"
   xmlns:inkscape="http://www.inkscape.org/namespaces/inkscape"
   xmlns:sodipodi="http://sodipodi.sourceforge.net/DTD/sodipodi-0.dtd"
   xmlns="http://www.w3.org/2000/svg"
   xmlns:svg="http://www.w3.org/2000/svg">
  <defs
   id="defs964">
    
  <clipPath
   clipPathUnits="userSpaceOnUse"
   id="clipPath2608-0"><path
     d="M 0,800 H 800 V 0 H 0 Z"
     id="path2606-1"
     inkscape:connector-curvature="0" /></clipPath></defs>
  <sodipodi:namedview
   id="namedview962"
   pagecolor="#ffffff"
   bordercolor="#666666"
   borderopacity="1.0"
   inkscape:pageshadow="2"
   inkscape:pageopacity="0.0"
   inkscape:pagecheckerboard="0"
   showgrid="false"
   width="1399px"
   inkscape:zoom="0.8255102"
   inkscape:cx="493.63412"
   inkscape:cy="199.27071"
   inkscape:window-width="1920"
   inkscape:window-height="1017"
   inkscape:window-x="-8"
   inkscape:window-y="-8"
   inkscape:window-maximized="1"
   inkscape:current-layer="Layer_1" />
  <g
   id="g959"
   transform="matrix(1.3981122,0,0,1.1150192,-1508.0877,-117.23751)">
      <g
   id="g935">
        <g
   id="g903">
          <g
   id="g897">
            <path
   d="M 1084.016,285.948 V 137.892 h 23.453 v -23.453 h 65.596 l -14.822,9.25 v -7.336 h -48.86 v 21.539 h 9.076 v 10.99 h -10.989 v -9.077 h -21.54 v 125.51 h 7.978 z m 1.913,-18.719 v 10.302 l 4.94,-10.302 z m 23.453,-120.261 h 7.163 v -7.163 h -7.163 z m 50.773,-30.615 v 3.887 l 6.228,-3.887 z"
   id="path895" />
          </g>
          <g
   id="g901">
            <path
   d="M 1091.485,166.668 V 131.49 h -0.989 c -0.262,0 -0.521,-0.02 -0.777,-0.054 -0.115,0.73 -0.37,1.422 -0.847,2.008 -0.812,0.998 -2.128,1.515 -3.915,1.541 l -0.026,-1.913 c 1.192,-0.018 2.021,-0.299 2.457,-0.837 0.292,-0.356 0.432,-0.835 0.479,-1.377 -2.228,-1.104 -3.852,-3.526 -3.852,-6.187 V 114.44 h 10.23 c 2.66,0 5.082,1.626 6.188,3.853 0.542,-0.047 1.019,-0.188 1.378,-0.479 0.535,-0.437 0.817,-1.264 0.836,-2.458 l 1.913,0.027 c -0.027,1.786 -0.544,3.103 -1.543,3.914 -0.585,0.479 -1.276,0.733 -2.008,0.847 0.036,0.256 0.054,0.516 0.054,0.777 v 0.989 h 35.182 l -1.636,1.633 c -4.337,4.337 -6.164,7.165 -6.183,7.193 l -0.277,0.434 -0.518,0.007 -26.579,0.303 -0.308,27.095 -0.436,0.279 c -0.027,0.018 -2.855,1.846 -7.192,6.183 z m 1.913,-35.178 v 30.604 c 2.697,-2.546 4.626,-3.983 5.446,-4.56 l 0.296,-26.045 h -5.742 z m 0,-1.914 h 5.753 v -5.753 h -5.753 z m -3.645,-0.075 c 0.244,0.049 0.492,0.075 0.743,0.075 h 0.989 v -4.808 c -0.308,-0.129 -0.75,-0.251 -1.188,-0.158 -0.429,0.094 -0.799,0.391 -1.127,0.908 -0.047,0.28 0.115,1.127 0.235,1.752 0.129,0.679 0.278,1.446 0.348,2.231 z m 11.311,-5.678 v 5.742 l 26.047,-0.296 c 0.576,-0.82 2.013,-2.748 4.561,-5.446 z m -15.135,-7.47 v 8.317 c 0,1.458 0.702,2.841 1.746,3.767 -0.048,-0.276 -0.1,-0.546 -0.149,-0.807 -0.262,-1.367 -0.449,-2.356 -0.016,-3.065 0.619,-1.008 1.428,-1.624 2.408,-1.829 1.545,-0.322 2.873,0.539 3.061,0.668 -0.129,-0.189 -0.989,-1.516 -0.666,-3.062 0.203,-0.979 0.819,-1.788 1.829,-2.407 0.709,-0.436 1.696,-0.247 3.065,0.015 0.26,0.05 0.53,0.101 0.807,0.149 -0.924,-1.045 -2.309,-1.747 -3.768,-1.747 h -8.317 z m 8.416,5.556 h 4.807 v -0.989 c 0,-0.25 -0.024,-0.499 -0.074,-0.744 -0.786,-0.07 -1.552,-0.217 -2.229,-0.347 -0.626,-0.119 -1.473,-0.283 -1.753,-0.234 -0.521,0.33 -0.817,0.703 -0.91,1.137 -0.092,0.432 0.031,0.87 0.159,1.177 z"
   id="path899" />
          </g>
        </g>
        <g
   id="g913">
          <g
   id="g907">
            <path
   d="m 1277.987,265.315 h 7.98 v -125.51 h -21.542 v 9.077 h -10.989 v -10.99 h 9.078 v -21.539 h -48.862 v 7.336 l -14.82,-9.25 h 65.596 v 23.453 h 23.453 v 148.056 z m 3.04,1.914 4.94,10.302 v -10.302 z m -18.512,-127.424 h -7.163 v 7.163 h 7.163 z m -57.003,-23.452 6.228,3.887 v -3.887 z"
   id="path905" />
          </g>
          <g
   id="g911">
            <path
   d="m 1278.775,165.036 c -4.337,-4.337 -7.162,-6.165 -7.191,-6.183 l -0.437,-0.279 -0.307,-27.095 -26.577,-0.303 -0.518,-0.007 -0.277,-0.434 c -0.021,-0.028 -1.848,-2.856 -6.185,-7.193 l -1.634,-1.633 h 35.179 v -0.989 c 0,-0.261 0.019,-0.521 0.055,-0.777 -0.729,-0.114 -1.423,-0.369 -2.009,-0.847 -0.996,-0.811 -1.516,-2.128 -1.54,-3.914 l 1.913,-0.027 c 0.018,1.194 0.298,2.021 0.836,2.458 0.356,0.292 0.836,0.432 1.378,0.479 1.104,-2.227 3.525,-3.853 6.187,-3.853 h 10.23 v 10.231 c 0,2.661 -1.624,5.083 -3.852,6.187 0.048,0.542 0.188,1.021 0.479,1.377 0.438,0.538 1.266,0.819 2.46,0.837 l -0.029,1.913 c -1.786,-0.026 -3.102,-0.543 -3.914,-1.541 -0.477,-0.586 -0.732,-1.278 -0.845,-2.008 -0.258,0.035 -0.518,0.054 -0.779,0.054 h -0.987 v 35.178 z m -6.021,-33.546 0.298,26.045 c 0.82,0.576 2.747,2.013 5.444,4.56 V 131.49 Z m 5.742,-7.667 h -5.754 v 5.753 h 5.754 z m 3.993,3.448 c 0.12,-0.625 0.282,-1.472 0.234,-1.752 -0.327,-0.517 -0.695,-0.814 -1.127,-0.908 -0.436,-0.093 -0.878,0.029 -1.186,0.158 v 4.808 h 0.987 c 0.25,0 0.499,-0.026 0.745,-0.075 0.072,-0.786 0.218,-1.553 0.347,-2.231 z m -42.264,-3.448 c 2.548,2.698 3.984,4.625 4.561,5.446 l 26.044,0.296 v -5.742 z m 37.423,-7.47 c -1.457,0 -2.842,0.701 -3.766,1.747 0.275,-0.048 0.545,-0.1 0.807,-0.149 1.366,-0.262 2.355,-0.451 3.065,-0.015 1.007,0.619 1.624,1.428 1.827,2.407 0.323,1.546 -0.535,2.872 -0.666,3.062 0.189,-0.13 1.516,-0.991 3.061,-0.668 0.98,0.205 1.789,0.821 2.408,1.829 0.436,0.709 0.246,1.698 -0.017,3.065 -0.05,0.261 -0.099,0.531 -0.148,0.807 1.046,-0.925 1.748,-2.309 1.748,-3.767 v -8.317 h -8.319 z m 0.061,4.379 c -0.09,-0.435 -0.388,-0.808 -0.907,-1.137 -0.28,-0.048 -1.13,0.115 -1.753,0.234 -0.678,0.129 -1.445,0.276 -2.229,0.347 -0.052,0.245 -0.077,0.494 -0.077,0.744 v 0.989 h 4.807 c 0.128,-0.307 0.25,-0.745 0.159,-1.177 z"
   id="path909" />
          </g>
        </g>
        <g
   id="g923">
          <g
   id="g917">
            <path
   d="m 1287.881,301.019 v 148.052 h -23.453 v 23.453 h -65.596 l 14.82,-9.25 v 7.336 h 48.862 v -21.54 h -9.078 v -10.989 h 10.991 v 9.076 h 21.54 V 321.649 h -7.98 z m -1.913,18.717 v -10.301 l -4.94,10.301 z m -23.453,120.259 h -7.163 v 7.163 h 7.163 z m -50.776,30.615 v -3.886 l -6.228,3.886 z"
   id="path915" />
          </g>
          <g
   id="g921">
            <path
   d="m 1280.411,420.295 v 35.178 h 0.987 c 0.262,0 0.521,0.019 0.779,0.054 0.112,-0.73 0.368,-1.422 0.847,-2.008 0.811,-0.998 2.128,-1.516 3.915,-1.542 l 0.026,1.915 c -1.192,0.017 -2.021,0.298 -2.46,0.835 -0.289,0.357 -0.431,0.835 -0.477,1.376 2.226,1.106 3.852,3.527 3.852,6.189 v 10.23 l -10.23,0.001 c -2.663,0 -5.084,-1.626 -6.188,-3.852 -0.542,0.048 -1.021,0.188 -1.378,0.478 -0.538,0.438 -0.818,1.266 -0.836,2.46 l -1.913,-0.028 c 0.027,-1.786 0.544,-3.103 1.54,-3.913 0.586,-0.478 1.279,-0.733 2.009,-0.847 -0.036,-0.255 -0.055,-0.515 -0.055,-0.777 v -0.989 h -35.179 l 1.634,-1.632 c 4.337,-4.338 6.164,-7.166 6.185,-7.194 l 0.277,-0.434 0.518,-0.008 26.577,-0.302 0.307,-27.095 0.438,-0.279 c 0.027,-0.019 2.853,-1.845 7.192,-6.183 z m -1.915,35.178 v -30.604 c -2.697,2.547 -4.624,3.983 -5.444,4.56 l -0.298,26.045 h 5.742 z m 0,1.913 h -5.754 v 5.754 h 5.754 z m 3.648,0.076 c -0.244,-0.05 -0.492,-0.076 -0.745,-0.076 h -0.987 v 4.809 c 0.308,0.127 0.75,0.25 1.186,0.155 0.432,-0.093 0.802,-0.39 1.127,-0.907 0.048,-0.279 -0.114,-1.127 -0.232,-1.752 -0.133,-0.676 -0.279,-1.444 -0.349,-2.229 z m -11.315,5.679 v -5.743 l -26.044,0.297 c -0.576,0.82 -2.013,2.747 -4.561,5.446 z m 15.139,7.468 v -8.317 c 0,-1.457 -0.702,-2.842 -1.748,-3.767 0.05,0.277 0.102,0.547 0.151,0.807 0.26,1.368 0.449,2.357 0.014,3.066 -0.619,1.009 -1.428,1.623 -2.406,1.828 -1.545,0.324 -2.873,-0.537 -3.063,-0.667 0.131,0.19 0.989,1.516 0.668,3.062 -0.205,0.979 -0.819,1.788 -1.829,2.405 -0.71,0.436 -1.699,0.248 -3.065,-0.013 -0.26,-0.05 -0.531,-0.103 -0.807,-0.15 0.924,1.043 2.309,1.747 3.768,1.747 z m -8.416,-5.555 h -4.81 v 0.989 c 0,0.251 0.027,0.5 0.077,0.743 0.784,0.071 1.552,0.218 2.229,0.347 0.625,0.121 1.473,0.285 1.753,0.235 0.52,-0.33 0.817,-0.703 0.907,-1.139 0.092,-0.43 -0.03,-0.87 -0.156,-1.175 z"
   id="path919" />
          </g>
        </g>
        <g
   id="g933">
          <g
   id="g927">
            <path
   d="m 1093.906,321.649 h -7.978 v 125.508 h 21.54 v -9.076 h 10.989 v 10.989 h -9.076 v 21.54 h 48.86 v -7.336 l 14.822,9.25 h -65.596 v -23.453 h -23.453 V 301.019 Z m -3.037,-1.913 -4.94,-10.301 v 10.301 z m 18.513,127.421 h 7.163 v -7.163 h -7.163 z m 57.001,23.453 -6.228,-3.886 v 3.886 z"
   id="path925" />
          </g>
          <g
   id="g931">
            <path
   d="m 1093.118,421.928 c 4.337,4.338 7.165,6.164 7.192,6.183 l 0.436,0.279 0.308,27.095 26.579,0.302 0.518,0.008 0.277,0.434 c 0.019,0.028 1.846,2.856 6.183,7.194 l 1.636,1.632 h -35.182 v 0.989 c 0,0.262 -0.018,0.522 -0.052,0.777 0.729,0.114 1.421,0.369 2.009,0.847 0.996,0.811 1.513,2.127 1.54,3.913 l -1.913,0.028 c -0.019,-1.194 -0.301,-2.021 -0.836,-2.46 -0.359,-0.29 -0.836,-0.429 -1.378,-0.478 -1.106,2.226 -3.526,3.852 -6.188,3.852 l -10.23,-0.001 v -10.23 c 0,-2.662 1.626,-5.083 3.852,-6.189 -0.048,-0.541 -0.188,-1.019 -0.477,-1.376 -0.438,-0.538 -1.266,-0.818 -2.46,-0.835 l 0.029,-1.915 c 1.784,0.026 3.101,0.544 3.912,1.542 0.477,0.586 0.731,1.277 0.847,2.008 0.258,-0.035 0.516,-0.054 0.779,-0.054 h 0.987 v -35.178 z m 6.025,33.545 -0.298,-26.045 c -0.82,-0.576 -2.747,-2.013 -5.446,-4.56 v 30.604 h 5.744 z m -5.745,7.668 h 5.753 v -5.754 h -5.753 z m -3.993,-3.45 c -0.12,0.625 -0.28,1.473 -0.233,1.752 0.326,0.517 0.696,0.814 1.125,0.907 0.438,0.095 0.881,-0.027 1.188,-0.155 v -4.809 h -0.987 c -0.253,0 -0.501,0.026 -0.745,0.076 -0.07,0.785 -0.217,1.553 -0.348,2.229 z m 42.264,3.45 c -2.545,-2.699 -3.981,-4.626 -4.558,-5.446 l -26.047,-0.297 v 5.743 z m -37.423,7.469 c 1.459,0 2.844,-0.704 3.768,-1.748 -0.276,0.048 -0.547,0.102 -0.807,0.151 -1.369,0.261 -2.356,0.449 -3.065,0.013 -1.01,-0.618 -1.624,-1.426 -1.829,-2.405 -0.321,-1.546 0.537,-2.872 0.668,-3.062 -0.189,0.13 -1.518,0.991 -3.063,0.667 -0.979,-0.205 -1.789,-0.819 -2.406,-1.828 -0.436,-0.709 -0.248,-1.698 0.014,-3.066 0.05,-0.26 0.102,-0.53 0.149,-0.807 -1.044,0.925 -1.746,2.31 -1.746,3.767 v 8.317 z m -0.061,-4.381 c 0.093,0.436 0.391,0.809 0.91,1.139 0.28,0.049 1.127,-0.114 1.753,-0.235 0.678,-0.128 1.445,-0.275 2.229,-0.347 0.05,-0.244 0.074,-0.492 0.074,-0.743 v -0.989 h -4.807 c -0.125,0.305 -0.247,0.745 -0.159,1.175 z"
   id="path929" />
          </g>
        </g>
      </g>
    </g>

    <clipPath
   clipPathUnits="userSpaceOnUse"
   id="clipPath2608"><path
     d="M 0,800 H 800 V 0 H 0 Z"
     id="path2606"
     inkscape:connector-curvature="0" /></clipPath>

    
<g
   id="g2604"
   clip-path="url(#clipPath2608-0)"
   transform="matrix(0.35073014,0,0,-0.46047349,7.4882946,404.89351)">
     
     <path
     d="m 710.406,596.56 c -5.295,0 -9.586,4.29 -9.586,9.585 0,5.296 4.291,9.587 9.586,9.587 5.295,0 9.586,-4.291 9.586,-9.587 0,-5.295 -4.291,-9.585 -9.586,-9.585 m -62.845,-51.129 c -5.294,0 -9.587,4.291 -9.587,9.586 0,5.295 4.293,9.587 9.587,9.587 5.294,0 9.585,-4.292 9.585,-9.587 0,-5.295 -4.291,-9.586 -9.585,-9.586 m -62.846,-48.999 c -5.295,0 -9.587,4.293 -9.587,9.586 0,5.296 4.292,9.586 9.587,9.586 5.295,0 9.586,-4.29 9.586,-9.586 0,-5.293 -4.291,-9.586 -9.586,-9.586 m -4.102,-85.958 c -0.27,-0.247 -0.557,-0.511 -0.833,-0.763 l -58.084,66.716 c 3.603,3.219 7.13,6.361 10.569,9.42 l 31.857,-34.804 c -0.316,-12.897 8.791,-27.94 16.491,-40.569 m -12.061,-11.041 c -24.869,-22.804 -60.188,-55.183 -100.717,-89.122 -20.694,20.261 -41.875,40.617 -62.43,60.127 40.288,37.463 79.863,73.417 113.112,103.149 l 58.116,-66.752 c -2.551,-2.333 -5.237,-4.795 -8.081,-7.402 m -341.99,0 c -2.843,2.607 -5.53,5.069 -8.08,7.402 l 58.117,66.752 C 383.956,377.582 557.245,216.746 607.706,149.461 485.373,162.127 304.586,327.891 226.562,399.433 M 187.409,149.461 c 23.655,31.543 74.305,83.646 132.5,139.99 l 60.846,-47.17 C 314.51,194.734 244.577,155.379 187.409,149.461 M 214.5,410.474 c 7.701,12.629 16.81,27.672 16.493,40.569 l 31.859,34.804 c 3.438,-3.059 6.962,-6.201 10.567,-9.42 l -58.083,-66.716 c -0.276,0.252 -0.564,0.516 -0.836,0.763 m -4.1,85.958 c -5.295,0 -9.586,4.293 -9.586,9.586 0,5.296 4.291,9.586 9.586,9.586 5.295,0 9.587,-4.29 9.587,-9.586 0,-5.293 -4.292,-9.586 -9.587,-9.586 m -62.844,48.999 c -5.295,0 -9.587,4.291 -9.587,9.586 0,5.295 4.292,9.587 9.587,9.587 5.294,0 9.587,-4.292 9.587,-9.587 0,-5.295 -4.293,-9.586 -9.587,-9.586 M 84.708,596.56 c -5.294,0 -9.585,4.29 -9.585,9.585 0,5.296 4.291,9.587 9.585,9.587 5.296,0 9.587,-4.291 9.587,-9.587 0,-5.295 -4.291,-9.585 -9.587,-9.585 M 485.271,495.271 c -1.9,0.908 -3.825,1.767 -5.738,2.652 -1.923,0.867 -3.877,1.66 -5.814,2.494 -3.905,1.6 -7.849,3.111 -11.838,4.503 -3.993,1.387 -8.024,2.671 -12.092,3.834 -8.138,2.329 -16.424,4.197 -24.8,5.58 -8.377,1.384 -16.845,2.285 -25.35,2.686 -4.251,0.199 -8.512,0.271 -12.776,0.23 -4.262,-0.053 -8.525,-0.233 -12.785,-0.523 -2.128,-0.133 -4.251,-0.362 -6.38,-0.542 -2.125,-0.202 -4.243,-0.488 -6.366,-0.731 -2.122,-0.27 -4.23,-0.613 -6.348,-0.916 -2.111,-0.337 -4.211,-0.737 -6.32,-1.105 -2.101,-0.405 -4.193,-0.861 -6.29,-1.291 l -6.253,-1.475 -6.209,-1.658 -6.163,-1.841 -6.11,-2.021 -6.05,-2.2 -0.069,-0.028 c -0.021,0.136 -0.038,0.27 -0.057,0.407 l -0.603,4.345 c -0.219,1.452 -0.35,2.896 -0.523,4.345 l -0.462,4.076 c 1.065,0.463 2.249,0.928 3.538,1.442 1.47,0.605 3.082,1.202 4.817,1.822 1.723,0.649 3.585,1.272 5.552,1.919 1.955,0.679 4.051,1.281 6.229,1.952 2.175,0.667 4.475,1.258 6.842,1.925 2.388,0.583 4.842,1.258 7.398,1.819 5.093,1.199 10.52,2.244 16.157,3.219 5.646,0.899 11.504,1.77 17.493,2.336 2.987,0.346 6.015,0.525 9.049,0.779 3.039,0.158 6.091,0.381 9.147,0.439 6.114,0.23 12.235,0.156 18.255,-0.085 6.021,-0.24 11.928,-0.794 17.629,-1.483 5.684,-0.783 11.176,-1.659 16.305,-2.86 5.154,-1.104 9.938,-2.517 14.323,-3.911 2.186,-0.726 4.245,-1.516 6.224,-2.217 1.94,-0.806 3.781,-1.568 5.509,-2.284 1.703,-0.778 3.273,-1.557 4.741,-2.25 1.478,-0.675 2.744,-1.466 3.938,-2.088 1.567,-0.816 2.834,-1.593 3.886,-2.255 l 0.32,-14.034 c 0.063,-2.013 0.124,-4.036 0.223,-6.087 z m -192.197,87.306 c -9.333,0.99 -20.831,3.293 -32.82,8.393 -5.963,2.551 -12.044,5.826 -17.501,10.072 -2.717,2.121 -5.269,4.482 -7.485,7.073 -2.162,2.611 -4.053,5.425 -5.291,8.434 -0.677,1.492 -1.097,3.048 -1.479,4.621 -0.339,1.58 -0.497,3.204 -0.55,4.859 0.015,3.318 0.563,6.806 1.906,10.361 2.591,7.126 7.724,14.335 14.179,20.952 1.627,1.652 3.293,3.303 5.072,4.899 0.863,0.815 1.769,1.604 2.691,2.388 l 1.376,1.184 0.343,0.298 c 0.174,0.144 -0.048,-0.033 0.047,0.042 l 0.189,0.151 0.756,0.606 c 1.544,1.22 3.394,2.471 5.351,3.605 1.961,1.142 4.055,2.208 6.242,3.211 8.782,4.008 18.894,7.003 29.343,9.907 10.484,2.897 21.416,5.662 32.5,9.027 9.449,2.869 19.037,6.169 28.468,10.434 -0.046,-0.052 -0.093,-0.101 -0.14,-0.154 -0.509,-0.563 -1.025,-1.13 -1.547,-1.705 -0.548,-0.551 -1.098,-1.105 -1.654,-1.668 -1.114,-1.123 -2.247,-2.265 -3.394,-3.423 -1.202,-1.102 -2.42,-2.218 -3.648,-3.341 -2.414,-2.311 -5.092,-4.386 -7.712,-6.558 -1.292,-1.112 -2.671,-2.104 -4.045,-3.097 -1.372,-1.001 -2.738,-1.999 -4.094,-2.99 l -1.016,-0.742 -1.053,-0.676 c -0.7,-0.449 -1.397,-0.898 -2.088,-1.344 -1.391,-0.894 -2.763,-1.775 -4.112,-2.643 -1.331,-0.911 -2.749,-1.601 -4.09,-2.378 -1.351,-0.753 -2.675,-1.492 -3.964,-2.211 -2.545,-1.518 -5.127,-2.587 -7.447,-3.731 -1.166,-0.555 -2.288,-1.088 -3.352,-1.595 -0.534,-0.253 -1.054,-0.501 -1.56,-0.74 -0.517,-0.206 -1.022,-0.406 -1.511,-0.601 -1.958,-0.773 -3.665,-1.45 -5.072,-2.006 -2.82,-1.116 -4.433,-1.752 -4.433,-1.752 0,0 1.673,0.447 4.602,1.229 1.471,0.394 3.254,0.871 5.302,1.419 0.513,0.137 1.041,0.28 1.585,0.426 0.534,0.182 1.081,0.369 1.642,0.561 1.128,0.383 2.314,0.788 3.549,1.208 2.46,0.879 5.205,1.664 7.945,2.893 1.387,0.577 2.814,1.171 4.273,1.775 1.449,0.629 2.982,1.171 4.436,1.937 1.48,0.723 2.981,1.461 4.501,2.207 0.763,0.374 1.529,0.75 2.297,1.127 l 1.161,0.57 1.127,0.638 c 1.51,0.854 3.031,1.715 4.556,2.582 1.534,0.86 3.078,1.722 4.542,2.708 2.959,1.923 5.995,3.766 8.779,5.871 1.415,1.026 2.823,2.043 4.208,3.048 1.34,1.07 2.665,2.127 3.967,3.168 0.653,0.521 1.299,1.041 1.941,1.554 0.618,0.538 1.231,1.072 1.837,1.601 1.21,1.065 2.396,2.107 3.548,3.12 1.114,1.061 2.196,2.094 3.246,3.094 1.053,0.995 2.055,1.975 2.977,2.962 0.936,0.975 1.833,1.907 2.687,2.795 0.821,0.924 1.603,1.8 2.335,2.622 1.478,1.641 2.682,3.172 3.704,4.412 0.99,1.275 1.77,2.274 2.328,3.079 0.509,0.72 0.78,1.102 0.78,1.102 l -0.502,0.303 c 0.333,0.274 0.676,0.532 1.006,0.812 1.212,1.028 2.413,2.079 3.573,3.181 l 1.586,1.485 c 0.525,0.485 1.104,1.043 1.526,1.391 0.876,0.78 1.885,1.611 2.892,2.395 1.012,0.778 2.045,1.516 3.096,2.213 2.106,1.39 4.296,2.599 6.555,3.598 4.521,1.997 9.323,3.177 14.263,3.403 9.9,0.515 20.179,-2.716 29.573,-7.898 9.432,-5.199 18.098,-12.213 25.914,-19.999 3.913,-3.902 7.631,-8.002 11.142,-12.259 1.757,-2.127 3.467,-4.29 5.128,-6.482 0.826,-1.098 1.645,-2.201 2.45,-3.315 l 1.198,-1.671 0.706,-0.991 0.633,-0.854 c 1.626,-2.22 3.427,-4.272 5.334,-6.182 1.03,-1.952 2.433,-4.561 4.164,-7.652 3.728,-6.679 8.899,-15.467 14.597,-23.922 1.415,-2.117 2.878,-4.208 4.341,-6.244 1.467,-2.037 2.957,-4.007 4.422,-5.894 1.484,-1.873 2.949,-3.659 4.387,-5.313 1.444,-1.65 2.854,-3.169 4.196,-4.529 0.685,-0.666 1.325,-1.32 1.964,-1.913 0.643,-0.581 1.255,-1.135 1.833,-1.656 1.199,-0.988 2.233,-1.851 3.152,-2.479 0.88,-0.673 1.638,-1.111 2.138,-1.426 0.502,-0.313 0.77,-0.478 0.77,-0.478 0,0 -0.244,0.2 -0.701,0.576 -0.455,0.378 -1.138,0.905 -1.917,1.681 -0.815,0.732 -1.718,1.715 -2.755,2.827 -0.492,0.58 -1.016,1.199 -1.568,1.849 -0.543,0.659 -1.084,1.379 -1.66,2.112 -1.129,1.493 -2.3,3.15 -3.487,4.935 -1.182,1.787 -2.375,3.711 -3.572,5.718 -1.179,2.022 -2.371,4.124 -3.529,6.29 -1.161,2.167 -2.309,4.381 -3.411,6.622 -2.931,5.902 -5.612,11.904 -7.897,17.314 2.706,-1.561 5.432,-2.983 8.137,-4.317 10.274,-4.986 20.31,-8.842 29.346,-13.489 4.508,-2.298 8.811,-4.806 12.642,-7.551 3.529,-2.565 6.689,-5.861 9.271,-9.469 5.181,-7.25 8.249,-15.871 8.913,-24.195 0.69,-8.335 -1.188,-16.367 -5.375,-22.379 -2.07,-3.024 -4.687,-5.554 -7.644,-7.566 -1.477,-1.008 -3.036,-1.89 -4.647,-2.655 l -1.167,-0.533 -1.41,-0.587 c -0.938,-0.391 -1.87,-0.781 -2.795,-1.166 -7.13,-2.918 -14.233,-5.276 -20.908,-7.129 -13.4,-3.718 -25.452,-5.438 -35.376,-6.045 -7.488,-0.47 -13.765,-0.338 -18.642,-0.01 -0.248,0.221 -0.485,0.454 -0.735,0.669 -3.362,2.903 -7.013,5.393 -10.809,7.525 -1.671,0.939 -3.372,1.796 -5.09,2.603 0.036,0.012 0.069,0.024 0.104,0.037 3.738,1.408 7.539,2.949 11.299,4.656 3.781,1.676 7.519,3.506 11.241,5.34 7.418,3.694 14.664,7.548 21.544,10.838 3.441,1.653 6.792,3.158 10.027,4.408 3.223,1.301 6.345,2.259 9.268,2.981 0.735,0.158 1.455,0.311 2.159,0.461 0.705,0.159 1.4,0.206 2.079,0.312 1.358,0.236 2.649,0.229 3.875,0.293 1.22,0.018 2.356,-0.112 3.42,-0.174 1.035,-0.201 2.006,-0.35 2.869,-0.552 0.843,-0.273 1.598,-0.52 2.254,-0.733 0.658,-0.221 1.161,-0.537 1.6,-0.728 0.866,-0.422 1.329,-0.647 1.329,-0.647 0,0 -0.432,0.281 -1.241,0.803 -0.416,0.245 -0.891,0.627 -1.524,0.931 -0.641,0.299 -1.379,0.643 -2.205,1.026 -0.854,0.315 -1.829,0.59 -2.888,0.93 -1.081,0.2 -2.26,0.481 -3.534,0.617 -1.276,0.091 -2.65,0.259 -4.085,0.188 -0.718,-0.022 -1.468,0.013 -2.217,-0.061 -0.754,-0.066 -1.523,-0.135 -2.312,-0.206 -3.129,-0.375 -6.509,-0.983 -9.978,-1.911 -3.49,-0.885 -7.105,-2.004 -10.792,-3.252 -7.386,-2.486 -15.081,-5.448 -22.772,-8.171 -3.845,-1.345 -7.682,-2.675 -11.472,-3.828 -3.783,-1.19 -7.519,-2.195 -11.127,-3.074 -3.616,-0.822 -7.104,-1.55 -10.405,-1.985 -0.823,-0.117 -1.635,-0.23 -2.435,-0.341 -0.798,-0.075 -1.586,-0.149 -2.358,-0.222 -1.544,-0.179 -3.029,-0.231 -4.448,-0.286 -0.355,-0.021 -0.694,-0.02 -1.039,-0.03 -6.586,1.364 -13.216,2.262 -19.838,2.806 -7.059,0.595 -14.11,0.773 -21.14,0.715 2.386,1.408 4.813,2.874 7.272,4.412 8.102,5.062 16.494,10.809 24.606,16.911 16.21,12.188 31.316,25.914 40.651,37.99 4.666,6.012 7.825,11.659 8.984,15.983 0.599,2.148 0.708,3.915 0.631,5.094 -0.025,0.592 -0.102,1.039 -0.165,1.338 -0.054,0.299 -0.084,0.451 -0.084,0.451 0,0 0.014,-0.155 0.041,-0.458 0.035,-0.302 0.072,-0.749 0.04,-1.334 -0.031,-1.164 -0.3,-2.869 -1.073,-4.894 -1.508,-4.071 -5.07,-9.249 -10.149,-14.671 -10.168,-10.899 -26.19,-22.945 -43.083,-33.341 -8.451,-5.208 -17.124,-10.029 -25.405,-14.186 -8.277,-4.167 -16.155,-7.677 -22.978,-10.386 -5.856,-2.325 -10.914,-4.073 -14.782,-5.284 -5.732,-0.685 -11.442,-1.493 -17.128,-2.425 -1.543,-0.251 -3.084,-0.522 -4.623,-0.793 -0.629,0.154 -1.286,0.32 -1.989,0.503 -1.927,0.517 -4.121,1.169 -6.509,1.958 -2.385,0.798 -4.977,1.694 -7.676,2.766 -2.715,1.044 -5.534,2.257 -8.437,3.56 -2.875,1.347 -5.847,2.771 -8.77,4.381 -2.955,1.566 -5.844,3.33 -8.708,5.149 -2.811,1.88 -5.6,3.822 -8.162,5.941 -0.642,0.529 -1.294,1.044 -1.92,1.579 -0.613,0.552 -1.219,1.102 -1.822,1.647 -1.248,1.066 -2.305,2.262 -3.443,3.376 -1.069,1.159 -2.09,2.336 -3.062,3.509 -0.459,0.606 -0.912,1.207 -1.361,1.799 -0.223,0.299 -0.447,0.595 -0.672,0.89 -0.207,0.301 -0.394,0.612 -0.592,0.915 -0.776,1.222 -1.579,2.397 -2.166,3.63 -0.319,0.607 -0.633,1.205 -0.94,1.792 -0.284,0.596 -0.503,1.205 -0.752,1.792 -0.243,0.591 -0.48,1.17 -0.71,1.736 -0.175,0.586 -0.344,1.158 -0.511,1.716 -0.164,0.56 -0.327,1.108 -0.481,1.64 -0.152,0.535 -0.208,1.07 -0.312,1.582 -0.156,1.031 -0.418,1.997 -0.457,2.906 -0.058,0.911 -0.112,1.749 -0.16,2.505 -0.082,0.762 -0.014,1.437 0.014,2.029 0.028,0.593 0.055,1.099 0.074,1.506 0.044,0.823 0.067,1.262 0.067,1.262 0,0 -0.086,-0.429 -0.244,-1.235 -0.08,-0.406 -0.176,-0.905 -0.293,-1.493 -0.11,-0.59 -0.276,-1.267 -0.303,-2.041 -0.062,-0.776 -0.128,-1.633 -0.202,-2.569 -0.091,-0.939 0.03,-1.951 0.041,-3.045 0.03,-0.543 0.011,-1.117 0.089,-1.69 0.083,-0.577 0.167,-1.169 0.253,-1.776 0.092,-0.612 0.186,-1.239 0.283,-1.881 0.156,-0.629 0.316,-1.271 0.481,-1.929 0.171,-0.656 0.317,-1.34 0.525,-2.015 0.238,-0.669 0.475,-1.348 0.718,-2.039 0.446,-1.412 1.112,-2.771 1.759,-4.202 0.164,-0.355 0.32,-0.72 0.497,-1.075 0.19,-0.347 0.382,-0.695 0.575,-1.046 0.389,-0.704 0.784,-1.417 1.18,-2.137 0.857,-1.399 1.767,-2.815 2.737,-4.223 1.029,-1.35 2.004,-2.814 3.157,-4.132 0.562,-0.674 1.127,-1.355 1.697,-2.039 0.583,-0.667 1.194,-1.312 1.8,-1.974 2.414,-2.655 5.066,-5.135 7.772,-7.562 2.48,-2.129 5.012,-4.198 7.597,-6.13 -4.169,-0.176 -9.263,-0.119 -15.186,0.492 m 16.034,-57.525 -0.254,4.337 c -0.098,1.45 -0.094,2.878 -0.149,4.323 l -0.061,2.163 0.005,2.146 c 0.011,1.429 -0.008,2.873 0.07,4.282 0.053,1.418 0.088,2.849 0.215,4.239 l 0.158,2.102 0.232,2.062 c 0.067,0.697 0.18,1.357 0.281,2.028 0.097,0.678 0.208,1.339 0.343,1.971 0.109,0.596 0.24,1.141 0.373,1.681 0.097,0.036 0.199,0.072 0.291,0.107 0.879,0.31 1.785,0.609 2.706,0.9 1.841,0.581 3.729,1.127 5.628,1.651 3.799,1.049 7.657,2.006 11.535,2.895 7.756,1.778 15.594,3.302 23.462,4.592 15.741,2.578 31.634,4.246 47.492,4.624 7.921,0.159 15.837,0.017 23.669,-0.644 7.833,-0.639 15.589,-1.775 23.092,-3.624 7.493,-1.845 14.755,-4.416 21.26,-8.077 6.106,-3.417 11.488,-7.835 15.558,-13.22 1.144,-9.685 1.584,-19.58 1.853,-29.545 l 0.034,-1.521 c -1.005,0.692 -2.212,1.502 -3.697,2.357 -1.169,0.678 -2.409,1.527 -3.86,2.269 -1.443,0.759 -2.989,1.608 -4.667,2.467 -1.71,0.796 -3.528,1.644 -5.446,2.537 -1.961,0.792 -4.005,1.679 -6.175,2.505 -4.363,1.598 -9.136,3.235 -14.295,4.577 -5.138,1.439 -10.653,2.564 -16.38,3.609 -5.741,0.944 -11.707,1.765 -17.804,2.273 -6.094,0.507 -12.306,0.853 -18.523,0.887 -3.11,0.074 -6.217,-0.017 -9.316,-0.045 -3.094,-0.124 -6.183,-0.175 -9.24,-0.394 -6.119,-0.314 -12.121,-0.941 -17.927,-1.61 -5.791,-0.745 -11.387,-1.576 -16.658,-2.581 -2.643,-0.459 -5.191,-1.042 -7.671,-1.534 -2.459,-0.582 -4.85,-1.088 -7.124,-1.677 -2.275,-0.595 -4.462,-1.125 -6.518,-1.738 -2.065,-0.582 -4.022,-1.145 -5.847,-1.743 -1.829,-0.564 -3.538,-1.116 -5.103,-1.682 -0.522,-0.182 -1.007,-0.351 -1.501,-0.522 -0.01,0.192 -0.033,0.383 -0.041,0.573 m 437.767,101.619 c -12.041,35.969 -48.501,26.951 -64.657,11.506 -9.289,-8.881 -122.343,-110.762 -151.544,-137.784 -3.005,-2.673 -7.583,-6.753 -13.48,-12.03 l -0.436,-0.381 0.004,-0.007 c -4.111,-3.681 -8.727,-7.943 -13.969,-12.689 l -2.628,11.053 v 0.003 c 0,0.686 -0.919,1.817 -1.054,2.964 -0.137,1.163 -0.528,2.381 -0.61,3.632 -0.174,2.493 -0.384,5.078 -0.464,7.665 l -0.442,15.727 c -0.287,10.563 -0.772,21.222 -2.117,31.958 l -0.169,1.216 c 3.102,-0.044 6.465,-0.005 10.117,0.17 10.573,0.488 23.38,2.124 37.619,5.849 7.137,1.87 14.546,4.2 22.314,7.245 0.932,0.373 1.87,0.747 2.812,1.124 l 1.419,0.567 1.646,0.717 c 2.118,0.964 4.215,2.104 6.238,3.44 4.047,2.663 7.797,6.159 10.766,10.363 2.996,4.185 5.172,9.035 6.469,14.12 1.292,5.092 1.715,10.414 1.376,15.715 -0.708,10.602 -4.303,21.19 -10.698,30.473 -3.224,4.633 -7.135,8.901 -11.93,12.504 -4.534,3.354 -9.282,6.188 -14.166,8.777 -9.746,5.176 -19.895,9.251 -29.346,14.032 -9.412,4.771 -18.145,10.394 -23.717,18.313 l -0.622,0.862 -0.515,0.75 -1.253,1.806 c -0.842,1.202 -1.701,2.395 -2.568,3.583 -1.745,2.376 -3.544,4.72 -5.399,7.037 -3.705,4.634 -7.659,9.129 -11.864,13.451 -8.418,8.621 -17.88,16.605 -28.855,22.882 -5.488,3.119 -11.371,5.784 -17.657,7.65 -6.27,1.874 -12.987,2.873 -19.785,2.65 -6.794,-0.2 -13.612,-1.756 -19.851,-4.411 -3.123,-1.326 -6.103,-2.918 -8.912,-4.712 -1.403,-0.899 -2.767,-1.843 -4.089,-2.831 -1.318,-0.99 -2.587,-1.998 -3.908,-3.143 -0.703,-0.586 -1.18,-1.04 -1.734,-1.538 l -1.635,-1.486 c -0.971,-0.895 -1.982,-1.752 -3.005,-2.594 -2.049,-1.682 -4.185,-3.275 -6.405,-4.766 -4.441,-2.985 -9.164,-5.62 -14.072,-7.96 -9.831,-4.67 -20.318,-8.2 -30.95,-11.251 -10.641,-3.059 -21.446,-5.627 -32.221,-8.429 -10.771,-2.842 -21.563,-5.778 -32.157,-10.398 -2.642,-1.164 -5.271,-2.447 -7.859,-3.901 -2.592,-1.458 -5.11,-3.067 -7.656,-5.02 l -0.764,-0.597 -0.518,-0.413 -0.394,-0.329 -1.574,-1.312 c -1.051,-0.869 -2.09,-1.748 -3.102,-2.67 -2.05,-1.792 -4.027,-3.681 -5.966,-5.594 -3.857,-3.858 -7.473,-7.988 -10.674,-12.5 -3.198,-4.51 -5.984,-9.42 -8.034,-14.751 -2.08,-5.302 -3.234,-11.142 -3.304,-16.974 0.018,-2.922 0.275,-5.832 0.832,-8.657 0.598,-2.804 1.358,-5.559 2.436,-8.11 2.06,-5.167 4.988,-9.627 8.139,-13.533 3.198,-3.869 6.685,-7.161 10.245,-10.027 7.145,-5.721 14.553,-9.792 21.674,-12.979 7.137,-3.172 14.027,-5.444 20.498,-7.106 6.469,-1.675 12.522,-2.722 18.043,-3.392 3.49,-0.415 6.741,-0.65 9.787,-0.78 -0.008,-0.017 -0.021,-0.043 -0.028,-0.061 -0.184,-0.423 -0.395,-0.88 -0.538,-1.275 -0.321,-0.823 -0.623,-1.64 -0.869,-2.429 -0.28,-0.804 -0.516,-1.597 -0.729,-2.38 -0.224,-0.79 -0.457,-1.584 -0.632,-2.361 l -0.562,-2.351 -0.473,-2.337 c -0.334,-1.564 -0.565,-3.113 -0.817,-4.668 -0.276,-1.56 -0.449,-3.103 -0.651,-4.654 l -0.29,-2.328 -0.22,-2.319 c -0.133,-1.544 -0.324,-3.1 -0.409,-4.638 l -0.297,-4.631 c -0.119,-1.55 -0.129,-3.078 -0.199,-4.62 -0.05,-1.54 -0.124,-3.085 -0.152,-4.622 l -0.045,-4.606 c -0.003,-1.535 -0.053,-3.082 -0.01,-4.607 l 0.07,-4.595 c 0.035,-1.53 0.024,-3.073 0.098,-4.596 l 0.358,-9.17 0.5,-12.784 13.322,5.07 5.296,2.567 5.372,2.415 5.443,2.26 5.51,2.097 5.571,1.94 5.631,1.776 5.682,1.612 5.732,1.444 c 1.925,0.421 3.845,0.88 5.777,1.275 1.935,0.365 3.869,0.772 5.813,1.108 1.947,0.307 3.893,0.662 5.847,0.936 1.96,0.25 3.914,0.555 5.877,0.765 3.927,0.445 7.868,0.788 11.821,1.012 3.951,0.215 7.912,0.326 11.876,0.315 7.928,-0.02 15.865,-0.505 23.761,-1.45 7.893,-0.946 15.747,-2.35 23.505,-4.2 3.878,-0.925 7.734,-1.966 11.562,-3.108 3.827,-1.146 7.622,-2.408 11.387,-3.759 1.872,-0.711 3.76,-1.38 5.621,-2.12 1.852,-0.76 3.72,-1.493 5.563,-2.275 l 5.509,-2.43 5.45,-2.579 10.728,-5.076 0.066,-0.01 0.007,-0.026 -0.073,0.036 c -25.62,-23.201 -63.62,-58.169 -104.783,-97.11 -49.803,47.115 -94.993,88.426 -119.204,110.102 l 0.005,0.007 -0.438,0.381 c -5.898,5.277 -10.475,9.357 -13.48,12.03 -29.201,27.022 -142.254,128.903 -151.545,137.784 -16.155,15.445 -52.614,24.463 -64.655,-11.506 -4.423,-13.214 -2.944,-24.309 0.138,-32.635 2.413,-16.697 13.163,-26.503 13.163,-26.503 6.745,-4.616 34.957,6.719 46.513,-8.165 9.714,-12.519 22.798,-36.186 37.28,-45.982 15.957,-10.794 58.418,-28.149 76.976,-54.163 0.606,-9.764 -2.86,-23.905 -7.301,-35.396 -2.008,-3.533 -4.122,-7.002 -6.127,-10.288 l -2.581,-4.244 1.948,-1.773 c 4.166,-3.79 8.846,-8.081 13.994,-12.801 24.835,-22.772 60.021,-55.033 100.459,-88.903 C 263.236,247.424 208.543,190.416 185.531,157.541 l -0.179,-0.248 c -2.665,-3.436 -5.098,-6.701 -7.225,-9.74 l -3.777,-5.395 6.575,0.373 c 63.437,3.594 143.123,49.881 216.633,104.133 73.509,-54.252 153.197,-100.539 216.632,-104.133 l 6.577,-0.373 -3.779,5.395 c -2.127,3.041 -4.562,6.306 -7.225,9.742 l -0.179,0.246 c -23.014,32.875 -77.705,89.883 -137.171,148.277 40.438,33.87 75.623,66.131 100.458,88.903 5.148,4.72 9.827,9.011 13.994,12.801 l 1.948,1.773 -2.581,4.244 c -2.005,3.286 -4.119,6.755 -6.127,10.288 -4.442,11.491 -7.907,25.632 -7.298,35.396 18.555,26.014 61.015,43.369 76.973,54.163 14.483,9.796 27.566,33.463 37.281,45.982 11.554,14.884 39.767,3.549 46.512,8.165 0,0 10.751,9.806 13.163,26.504 3.082,8.327 4.561,19.421 0.139,32.634"
     style="fill:#000000;fill-opacity:1;fill-rule:nonzero;stroke:none"
     id="path2612"
     inkscape:connector-curvature="0" />
  </g>
</svg>
