<?xml version="1.0" encoding="UTF-8" standalone="no"?>
<svg
   version="1.1"
   id="Layer_1"
   x="0px"
   y="0px"
   width="300"
   height="420"
   viewBox="0 0 300 420"
   enable-background="new 0 0 1400 980"
   xml:space="preserve"
   sodipodi:docname="pokerDoorBack.svg"
   inkscape:version="1.1.1 (3bf5ae0d25, 2021-09-20)"
   xmlns:inkscape="http://www.inkscape.org/namespaces/inkscape"
   xmlns:sodipodi="http://sodipodi.sourceforge.net/DTD/sodipodi-0.dtd"
   xmlns="http://www.w3.org/2000/svg"
   xmlns:svg="http://www.w3.org/2000/svg">
  <defs
   id="defs964">
    
  </defs>
  <sodipodi:namedview
   id="namedview962"
   pagecolor="#ffffff"
   bordercolor="#666666"
   borderopacity="1.0"
   inkscape:pageshadow="2"
   inkscape:pageopacity="0.0"
   inkscape:pagecheckerboard="0"
   showgrid="false"
   width="1399px"
   inkscape:zoom="0.8255102"
   inkscape:cx="493.63412"
   inkscape:cy="199.27071"
   inkscape:window-width="1920"
   inkscape:window-height="1017"
   inkscape:window-x="-8"
   inkscape:window-y="-8"
   inkscape:window-maximized="1"
   inkscape:current-layer="Layer_1" />
  <g
   id="g959"
   transform="matrix(1.3981122,0,0,1.1150192,-1508.0877,-117.23751)">
      <g
   id="g935">
        <g
   id="g903">
          <g
   id="g897">
            <path
   d="M 1084.016,285.948 V 137.892 h 23.453 v -23.453 h 65.596 l -14.822,9.25 v -7.336 h -48.86 v 21.539 h 9.076 v 10.99 h -10.989 v -9.077 h -21.54 v 125.51 h 7.978 z m 1.913,-18.719 v 10.302 l 4.94,-10.302 z m 23.453,-120.261 h 7.163 v -7.163 h -7.163 z m 50.773,-30.615 v 3.887 l 6.228,-3.887 z"
   id="path895" />
          </g>
          <g
   id="g901">
            <path
   d="M 1091.485,166.668 V 131.49 h -0.989 c -0.262,0 -0.521,-0.02 -0.777,-0.054 -0.115,0.73 -0.37,1.422 -0.847,2.008 -0.812,0.998 -2.128,1.515 -3.915,1.541 l -0.026,-1.913 c 1.192,-0.018 2.021,-0.299 2.457,-0.837 0.292,-0.356 0.432,-0.835 0.479,-1.377 -2.228,-1.104 -3.852,-3.526 -3.852,-6.187 V 114.44 h 10.23 c 2.66,0 5.082,1.626 6.188,3.853 0.542,-0.047 1.019,-0.188 1.378,-0.479 0.535,-0.437 0.817,-1.264 0.836,-2.458 l 1.913,0.027 c -0.027,1.786 -0.544,3.103 -1.543,3.914 -0.585,0.479 -1.276,0.733 -2.008,0.847 0.036,0.256 0.054,0.516 0.054,0.777 v 0.989 h 35.182 l -1.636,1.633 c -4.337,4.337 -6.164,7.165 -6.183,7.193 l -0.277,0.434 -0.518,0.007 -26.579,0.303 -0.308,27.095 -0.436,0.279 c -0.027,0.018 -2.855,1.846 -7.192,6.183 z m 1.913,-35.178 v 30.604 c 2.697,-2.546 4.626,-3.983 5.446,-4.56 l 0.296,-26.045 h -5.742 z m 0,-1.914 h 5.753 v -5.753 h -5.753 z m -3.645,-0.075 c 0.244,0.049 0.492,0.075 0.743,0.075 h 0.989 v -4.808 c -0.308,-0.129 -0.75,-0.251 -1.188,-0.158 -0.429,0.094 -0.799,0.391 -1.127,0.908 -0.047,0.28 0.115,1.127 0.235,1.752 0.129,0.679 0.278,1.446 0.348,2.231 z m 11.311,-5.678 v 5.742 l 26.047,-0.296 c 0.576,-0.82 2.013,-2.748 4.561,-5.446 z m -15.135,-7.47 v 8.317 c 0,1.458 0.702,2.841 1.746,3.767 -0.048,-0.276 -0.1,-0.546 -0.149,-0.807 -0.262,-1.367 -0.449,-2.356 -0.016,-3.065 0.619,-1.008 1.428,-1.624 2.408,-1.829 1.545,-0.322 2.873,0.539 3.061,0.668 -0.129,-0.189 -0.989,-1.516 -0.666,-3.062 0.203,-0.979 0.819,-1.788 1.829,-2.407 0.709,-0.436 1.696,-0.247 3.065,0.015 0.26,0.05 0.53,0.101 0.807,0.149 -0.924,-1.045 -2.309,-1.747 -3.768,-1.747 h -8.317 z m 8.416,5.556 h 4.807 v -0.989 c 0,-0.25 -0.024,-0.499 -0.074,-0.744 -0.786,-0.07 -1.552,-0.217 -2.229,-0.347 -0.626,-0.119 -1.473,-0.283 -1.753,-0.234 -0.521,0.33 -0.817,0.703 -0.91,1.137 -0.092,0.432 0.031,0.87 0.159,1.177 z"
   id="path899" />
          </g>
        </g>
        <g
   id="g913">
          <g
   id="g907">
            <path
   d="m 1277.987,265.315 h 7.98 v -125.51 h -21.542 v 9.077 h -10.989 v -10.99 h 9.078 v -21.539 h -48.862 v 7.336 l -14.82,-9.25 h 65.596 v 23.453 h 23.453 v 148.056 z m 3.04,1.914 4.94,10.302 v -10.302 z m -18.512,-127.424 h -7.163 v 7.163 h 7.163 z m -57.003,-23.452 6.228,3.887 v -3.887 z"
   id="path905" />
          </g>
          <g
   id="g911">
            <path
   d="m 1278.775,165.036 c -4.337,-4.337 -7.162,-6.165 -7.191,-6.183 l -0.437,-0.279 -0.307,-27.095 -26.577,-0.303 -0.518,-0.007 -0.277,-0.434 c -0.021,-0.028 -1.848,-2.856 -6.185,-7.193 l -1.634,-1.633 h 35.179 v -0.989 c 0,-0.261 0.019,-0.521 0.055,-0.777 -0.729,-0.114 -1.423,-0.369 -2.009,-0.847 -0.996,-0.811 -1.516,-2.128 -1.54,-3.914 l 1.913,-0.027 c 0.018,1.194 0.298,2.021 0.836,2.458 0.356,0.292 0.836,0.432 1.378,0.479 1.104,-2.227 3.525,-3.853 6.187,-3.853 h 10.23 v 10.231 c 0,2.661 -1.624,5.083 -3.852,6.187 0.048,0.542 0.188,1.021 0.479,1.377 0.438,0.538 1.266,0.819 2.46,0.837 l -0.029,1.913 c -1.786,-0.026 -3.102,-0.543 -3.914,-1.541 -0.477,-0.586 -0.732,-1.278 -0.845,-2.008 -0.258,0.035 -0.518,0.054 -0.779,0.054 h -0.987 v 35.178 z m -6.021,-33.546 0.298,26.045 c 0.82,0.576 2.747,2.013 5.444,4.56 V 131.49 Z m 5.742,-7.667 h -5.754 v 5.753 h 5.754 z m 3.993,3.448 c 0.12,-0.625 0.282,-1.472 0.234,-1.752 -0.327,-0.517 -0.695,-0.814 -1.127,-0.908 -0.436,-0.093 -0.878,0.029 -1.186,0.158 v 4.808 h 0.987 c 0.25,0 0.499,-0.026 0.745,-0.075 0.072,-0.786 0.218,-1.553 0.347,-2.231 z m -42.264,-3.448 c 2.548,2.698 3.984,4.625 4.561,5.446 l 26.044,0.296 v -5.742 z m 37.423,-7.47 c -1.457,0 -2.842,0.701 -3.766,1.747 0.275,-0.048 0.545,-0.1 0.807,-0.149 1.366,-0.262 2.355,-0.451 3.065,-0.015 1.007,0.619 1.624,1.428 1.827,2.407 0.323,1.546 -0.535,2.872 -0.666,3.062 0.189,-0.13 1.516,-0.991 3.061,-0.668 0.98,0.205 1.789,0.821 2.408,1.829 0.436,0.709 0.246,1.698 -0.017,3.065 -0.05,0.261 -0.099,0.531 -0.148,0.807 1.046,-0.925 1.748,-2.309 1.748,-3.767 v -8.317 h -8.319 z m 0.061,4.379 c -0.09,-0.435 -0.388,-0.808 -0.907,-1.137 -0.28,-0.048 -1.13,0.115 -1.753,0.234 -0.678,0.129 -1.445,0.276 -2.229,0.347 -0.052,0.245 -0.077,0.494 -0.077,0.744 v 0.989 h 4.807 c 0.128,-0.307 0.25,-0.745 0.159,-1.177 z"
   id="path909" />
          </g>
        </g>
        <g
   id="g923">
          <g
   id="g917">
            <path
   d="m 1287.881,301.019 v 148.052 h -23.453 v 23.453 h -65.596 l 14.82,-9.25 v 7.336 h 48.862 v -21.54 h -9.078 v -10.989 h 10.991 v 9.076 h 21.54 V 321.649 h -7.98 z m -1.913,18.717 v -10.301 l -4.94,10.301 z m -23.453,120.259 h -7.163 v 7.163 h 7.163 z m -50.776,30.615 v -3.886 l -6.228,3.886 z"
   id="path915" />
          </g>
          <g
   id="g921">
            <path
   d="m 1280.411,420.295 v 35.178 h 0.987 c 0.262,0 0.521,0.019 0.779,0.054 0.112,-0.73 0.368,-1.422 0.847,-2.008 0.811,-0.998 2.128,-1.516 3.915,-1.542 l 0.026,1.915 c -1.192,0.017 -2.021,0.298 -2.46,0.835 -0.289,0.357 -0.431,0.835 -0.477,1.376 2.226,1.106 3.852,3.527 3.852,6.189 v 10.23 l -10.23,0.001 c -2.663,0 -5.084,-1.626 -6.188,-3.852 -0.542,0.048 -1.021,0.188 -1.378,0.478 -0.538,0.438 -0.818,1.266 -0.836,2.46 l -1.913,-0.028 c 0.027,-1.786 0.544,-3.103 1.54,-3.913 0.586,-0.478 1.279,-0.733 2.009,-0.847 -0.036,-0.255 -0.055,-0.515 -0.055,-0.777 v -0.989 h -35.179 l 1.634,-1.632 c 4.337,-4.338 6.164,-7.166 6.185,-7.194 l 0.277,-0.434 0.518,-0.008 26.577,-0.302 0.307,-27.095 0.438,-0.279 c 0.027,-0.019 2.853,-1.845 7.192,-6.183 z m -1.915,35.178 v -30.604 c -2.697,2.547 -4.624,3.983 -5.444,4.56 l -0.298,26.045 h 5.742 z m 0,1.913 h -5.754 v 5.754 h 5.754 z m 3.648,0.076 c -0.244,-0.05 -0.492,-0.076 -0.745,-0.076 h -0.987 v 4.809 c 0.308,0.127 0.75,0.25 1.186,0.155 0.432,-0.093 0.802,-0.39 1.127,-0.907 0.048,-0.279 -0.114,-1.127 -0.232,-1.752 -0.133,-0.676 -0.279,-1.444 -0.349,-2.229 z m -11.315,5.679 v -5.743 l -26.044,0.297 c -0.576,0.82 -2.013,2.747 -4.561,5.446 z m 15.139,7.468 v -8.317 c 0,-1.457 -0.702,-2.842 -1.748,-3.767 0.05,0.277 0.102,0.547 0.151,0.807 0.26,1.368 0.449,2.357 0.014,3.066 -0.619,1.009 -1.428,1.623 -2.406,1.828 -1.545,0.324 -2.873,-0.537 -3.063,-0.667 0.131,0.19 0.989,1.516 0.668,3.062 -0.205,0.979 -0.819,1.788 -1.829,2.405 -0.71,0.436 -1.699,0.248 -3.065,-0.013 -0.26,-0.05 -0.531,-0.103 -0.807,-0.15 0.924,1.043 2.309,1.747 3.768,1.747 z m -8.416,-5.555 h -4.81 v 0.989 c 0,0.251 0.027,0.5 0.077,0.743 0.784,0.071 1.552,0.218 2.229,0.347 0.625,0.121 1.473,0.285 1.753,0.235 0.52,-0.33 0.817,-0.703 0.907,-1.139 0.092,-0.43 -0.03,-0.87 -0.156,-1.175 z"
   id="path919" />
          </g>
        </g>
        <g
   id="g933">
          <g
   id="g927">
            <path
   d="m 1093.906,321.649 h -7.978 v 125.508 h 21.54 v -9.076 h 10.989 v 10.989 h -9.076 v 21.54 h 48.86 v -7.336 l 14.822,9.25 h -65.596 v -23.453 h -23.453 V 301.019 Z m -3.037,-1.913 -4.94,-10.301 v 10.301 z m 18.513,127.421 h 7.163 v -7.163 h -7.163 z m 57.001,23.453 -6.228,-3.886 v 3.886 z"
   id="path925" />
          </g>
          <g
   id="g931">
            <path
   d="m 1093.118,421.928 c 4.337,4.338 7.165,6.164 7.192,6.183 l 0.436,0.279 0.308,27.095 26.579,0.302 0.518,0.008 0.277,0.434 c 0.019,0.028 1.846,2.856 6.183,7.194 l 1.636,1.632 h -35.182 v 0.989 c 0,0.262 -0.018,0.522 -0.052,0.777 0.729,0.114 1.421,0.369 2.009,0.847 0.996,0.811 1.513,2.127 1.54,3.913 l -1.913,0.028 c -0.019,-1.194 -0.301,-2.021 -0.836,-2.46 -0.359,-0.29 -0.836,-0.429 -1.378,-0.478 -1.106,2.226 -3.526,3.852 -6.188,3.852 l -10.23,-0.001 v -10.23 c 0,-2.662 1.626,-5.083 3.852,-6.189 -0.048,-0.541 -0.188,-1.019 -0.477,-1.376 -0.438,-0.538 -1.266,-0.818 -2.46,-0.835 l 0.029,-1.915 c 1.784,0.026 3.101,0.544 3.912,1.542 0.477,0.586 0.731,1.277 0.847,2.008 0.258,-0.035 0.516,-0.054 0.779,-0.054 h 0.987 v -35.178 z m 6.025,33.545 -0.298,-26.045 c -0.82,-0.576 -2.747,-2.013 -5.446,-4.56 v 30.604 h 5.744 z m -5.745,7.668 h 5.753 v -5.754 h -5.753 z m -3.993,-3.45 c -0.12,0.625 -0.28,1.473 -0.233,1.752 0.326,0.517 0.696,0.814 1.125,0.907 0.438,0.095 0.881,-0.027 1.188,-0.155 v -4.809 h -0.987 c -0.253,0 -0.501,0.026 -0.745,0.076 -0.07,0.785 -0.217,1.553 -0.348,2.229 z m 42.264,3.45 c -2.545,-2.699 -3.981,-4.626 -4.558,-5.446 l -26.047,-0.297 v 5.743 z m -37.423,7.469 c 1.459,0 2.844,-0.704 3.768,-1.748 -0.276,0.048 -0.547,0.102 -0.807,0.151 -1.369,0.261 -2.356,0.449 -3.065,0.013 -1.01,-0.618 -1.624,-1.426 -1.829,-2.405 -0.321,-1.546 0.537,-2.872 0.668,-3.062 -0.189,0.13 -1.518,0.991 -3.063,0.667 -0.979,-0.205 -1.789,-0.819 -2.406,-1.828 -0.436,-0.709 -0.248,-1.698 0.014,-3.066 0.05,-0.26 0.102,-0.53 0.149,-0.807 -1.044,0.925 -1.746,2.31 -1.746,3.767 v 8.317 z m -0.061,-4.381 c 0.093,0.436 0.391,0.809 0.91,1.139 0.28,0.049 1.127,-0.114 1.753,-0.235 0.678,-0.128 1.445,-0.275 2.229,-0.347 0.05,-0.244 0.074,-0.492 0.074,-0.743 v -0.989 h -4.807 c -0.125,0.305 -0.247,0.745 -0.159,1.175 z"
   id="path929" />
          </g>
        </g>
      </g>
    </g>
  <path
   d="m 125.52582,61.812857 11.59521,48.987633 c 4.60702,-1.05295 9.36934,-1.57942 14.28696,-1.57942 4.39997,0 8.69641,0.43132 12.88933,1.28129 l 11.49169,-48.689503 z m 53.36904,29.343099 -5.17643,22.061254 c 7.86818,3.04467 15.06342,7.80199 21.11985,14.3988 l 13.19991,-15.09653 c -8.2823,-9.38144 -18.16929,-16.714028 -29.14333,-21.363524 z m -56.37138,0.545512 c -10.87051,4.865143 -20.65397,12.438772 -28.780972,22.023182 l 13.199902,15.09654 c 0.0517,-0.0634 0.10354,-0.19029 0.20706,-0.25372 5.90114,-6.72367 12.88932,-11.60784 20.60221,-14.84282 z m -54.528557,8.797872 -19.59281,35.29926 44.563927,19.09268 c 1.915287,-6.34309 4.451738,-12.11531 7.50584,-17.18977 z m 164.734867,0 -31.21391,35.74326 c 3.31292,5.20132 6.05644,11.16384 8.12701,17.82408 l 42.65382,-18.26808 z m -76.50771,20.71015 v 201.39294 h 48.34789 V 186.28954 c 0,-22.39109 -5.95289,-38.31224 -15.42577,-49.03204 -8.38582,-9.51462 -19.82574,-14.96966 -32.92212,-16.04801 z m -9.62817,0 c -13.04462,1.07835 -24.48454,6.53339 -32.92213,16.04801 -9.42111,10.65639 -15.374004,26.64095 -15.374004,49.03205 v 136.31288 h 48.296134 z m 84.37588,36.34588 -18.53163,7.92885 c 1.13881,6.46995 1.75998,13.38392 1.75998,20.80533 v 5.89905 h 20.13635 v -5.89905 c 0,-10.02208 -1.19059,-19.66356 -3.3647,-28.73418 z m -159.123603,0.88804 c -2.018805,8.81688 -3.13174,18.14121 -3.13174,27.84614 v 5.89906 h 19.95516 v -5.89906 c 0,-7.10426 0.569405,-13.76449 1.604687,-19.91728 z m -20.343384,45.54334 v 35.64813 h 37.166804 v -35.64813 z m 162.695337,0 v 35.64813 h 34.16448 V 203.98674 Z M 68.714449,251.43301 v 23.78656 h 19.955158 v -23.78656 z m 145.483691,0 v 23.78656 h 20.13635 V 251.43301 Z M 46.564479,287.01772 v 35.58471 h 42.105128 v -35.58471 z m 167.633661,0 v 35.58471 h 39.23738 V 287.01772 Z M 93.431927,334.40054 72.933239,358.18714 H 226.88042 l -17.08224,-23.78659 z"
   fill="#000000"
   fill-opacity="1"
   stroke="#000000"
   stroke-opacity="1"
   stroke-width="2.86507"
   id="path1288" />
</svg>
