<?xml version="1.0" encoding="UTF-8" standalone="no"?>
<svg
   version="1.1"
   id="Layer_1"
   x="0px"
   y="0px"
   width="327"
   height="565"
   viewBox="0 0 327 565"
   enable-background="new 0 0 1400 980"
   xml:space="preserve"
   sodipodi:docname="tarotMoonBack.svg"
   inkscape:version="1.1.1 (3bf5ae0d25, 2021-09-20)"
   xmlns:inkscape="http://www.inkscape.org/namespaces/inkscape"
   xmlns:sodipodi="http://sodipodi.sourceforge.net/DTD/sodipodi-0.dtd"
   xmlns="http://www.w3.org/2000/svg"
   xmlns:svg="http://www.w3.org/2000/svg"><defs
     id="defs964" /><sodipodi:namedview
     id="namedview962"
     pagecolor="#ffffff"
     bordercolor="#666666"
     borderopacity="1.0"
     inkscape:pageshadow="2"
     inkscape:pageopacity="0.0"
     inkscape:pagecheckerboard="0"
     showgrid="false"
     width="1399px"
     inkscape:zoom="0.8255102"
     inkscape:cx="596.60074"
     inkscape:cy="199.2707"
     inkscape:window-width="1920"
     inkscape:window-height="1017"
     inkscape:window-x="-8"
     inkscape:window-y="-8"
     inkscape:window-maximized="1"
     inkscape:current-layer="Layer_1" /><g
     id="g1159"
     transform="translate(-3.927125e-5)"><g
       id="g959"
       transform="matrix(1.5466615,0,0,1.5311181,-1669.2593,-164.35484)">
		<g
   id="g935">
			<g
   id="g903">
				<g
   id="g897">
					<path
   d="M 1084.016,285.948 V 137.892 h 23.453 v -23.453 h 65.596 l -14.822,9.25 v -7.336 h -48.86 v 21.539 h 9.076 v 10.99 h -10.989 v -9.077 h -21.54 v 125.51 h 7.978 z m 1.913,-18.719 v 10.302 l 4.94,-10.302 z m 23.453,-120.261 h 7.163 v -7.163 h -7.163 z m 50.773,-30.615 v 3.887 l 6.228,-3.887 z"
   id="path895" />
				</g>
				<g
   id="g901">
					<path
   d="M 1091.485,166.668 V 131.49 h -0.989 c -0.262,0 -0.521,-0.02 -0.777,-0.054 -0.115,0.73 -0.37,1.422 -0.847,2.008 -0.812,0.998 -2.128,1.515 -3.915,1.541 l -0.026,-1.913 c 1.192,-0.018 2.021,-0.299 2.457,-0.837 0.292,-0.356 0.432,-0.835 0.479,-1.377 -2.228,-1.104 -3.852,-3.526 -3.852,-6.187 V 114.44 h 10.23 c 2.66,0 5.082,1.626 6.188,3.853 0.542,-0.047 1.019,-0.188 1.378,-0.479 0.535,-0.437 0.817,-1.264 0.836,-2.458 l 1.913,0.027 c -0.027,1.786 -0.544,3.103 -1.543,3.914 -0.585,0.479 -1.276,0.733 -2.008,0.847 0.036,0.256 0.054,0.516 0.054,0.777 v 0.989 h 35.182 l -1.636,1.633 c -4.337,4.337 -6.164,7.165 -6.183,7.193 l -0.277,0.434 -0.518,0.007 -26.579,0.303 -0.308,27.095 -0.436,0.279 c -0.027,0.018 -2.855,1.846 -7.192,6.183 z m 1.913,-35.178 v 30.604 c 2.697,-2.546 4.626,-3.983 5.446,-4.56 l 0.296,-26.045 h -5.742 z m 0,-1.914 h 5.753 v -5.753 h -5.753 z m -3.645,-0.075 c 0.244,0.049 0.492,0.075 0.743,0.075 h 0.989 v -4.808 c -0.308,-0.129 -0.75,-0.251 -1.188,-0.158 -0.429,0.094 -0.799,0.391 -1.127,0.908 -0.047,0.28 0.115,1.127 0.235,1.752 0.129,0.679 0.278,1.446 0.348,2.231 z m 11.311,-5.678 v 5.742 l 26.047,-0.296 c 0.576,-0.82 2.013,-2.748 4.561,-5.446 z m -15.135,-7.47 v 8.317 c 0,1.458 0.702,2.841 1.746,3.767 -0.048,-0.276 -0.1,-0.546 -0.149,-0.807 -0.262,-1.367 -0.449,-2.356 -0.016,-3.065 0.619,-1.008 1.428,-1.624 2.408,-1.829 1.545,-0.322 2.873,0.539 3.061,0.668 -0.129,-0.189 -0.989,-1.516 -0.666,-3.062 0.203,-0.979 0.819,-1.788 1.829,-2.407 0.709,-0.436 1.696,-0.247 3.065,0.015 0.26,0.05 0.53,0.101 0.807,0.149 -0.924,-1.045 -2.309,-1.747 -3.768,-1.747 h -8.317 z m 8.416,5.556 h 4.807 v -0.989 c 0,-0.25 -0.024,-0.499 -0.074,-0.744 -0.786,-0.07 -1.552,-0.217 -2.229,-0.347 -0.626,-0.119 -1.473,-0.283 -1.753,-0.234 -0.521,0.33 -0.817,0.703 -0.91,1.137 -0.092,0.432 0.031,0.87 0.159,1.177 z"
   id="path899" />
				</g>
			</g>
			<g
   id="g913">
				<g
   id="g907">
					<path
   d="m 1277.987,265.315 h 7.98 v -125.51 h -21.542 v 9.077 h -10.989 v -10.99 h 9.078 v -21.539 h -48.862 v 7.336 l -14.82,-9.25 h 65.596 v 23.453 h 23.453 v 148.056 z m 3.04,1.914 4.94,10.302 v -10.302 z m -18.512,-127.424 h -7.163 v 7.163 h 7.163 z m -57.003,-23.452 6.228,3.887 v -3.887 z"
   id="path905" />
				</g>
				<g
   id="g911">
					<path
   d="m 1278.775,165.036 c -4.337,-4.337 -7.162,-6.165 -7.191,-6.183 l -0.437,-0.279 -0.307,-27.095 -26.577,-0.303 -0.518,-0.007 -0.277,-0.434 c -0.021,-0.028 -1.848,-2.856 -6.185,-7.193 l -1.634,-1.633 h 35.179 v -0.989 c 0,-0.261 0.019,-0.521 0.055,-0.777 -0.729,-0.114 -1.423,-0.369 -2.009,-0.847 -0.996,-0.811 -1.516,-2.128 -1.54,-3.914 l 1.913,-0.027 c 0.018,1.194 0.298,2.021 0.836,2.458 0.356,0.292 0.836,0.432 1.378,0.479 1.104,-2.227 3.525,-3.853 6.187,-3.853 h 10.23 v 10.231 c 0,2.661 -1.624,5.083 -3.852,6.187 0.048,0.542 0.188,1.021 0.479,1.377 0.438,0.538 1.266,0.819 2.46,0.837 l -0.029,1.913 c -1.786,-0.026 -3.102,-0.543 -3.914,-1.541 -0.477,-0.586 -0.732,-1.278 -0.845,-2.008 -0.258,0.035 -0.518,0.054 -0.779,0.054 h -0.987 v 35.178 z m -6.021,-33.546 0.298,26.045 c 0.82,0.576 2.747,2.013 5.444,4.56 V 131.49 Z m 5.742,-7.667 h -5.754 v 5.753 h 5.754 z m 3.993,3.448 c 0.12,-0.625 0.282,-1.472 0.234,-1.752 -0.327,-0.517 -0.695,-0.814 -1.127,-0.908 -0.436,-0.093 -0.878,0.029 -1.186,0.158 v 4.808 h 0.987 c 0.25,0 0.499,-0.026 0.745,-0.075 0.072,-0.786 0.218,-1.553 0.347,-2.231 z m -42.264,-3.448 c 2.548,2.698 3.984,4.625 4.561,5.446 l 26.044,0.296 v -5.742 z m 37.423,-7.47 c -1.457,0 -2.842,0.701 -3.766,1.747 0.275,-0.048 0.545,-0.1 0.807,-0.149 1.366,-0.262 2.355,-0.451 3.065,-0.015 1.007,0.619 1.624,1.428 1.827,2.407 0.323,1.546 -0.535,2.872 -0.666,3.062 0.189,-0.13 1.516,-0.991 3.061,-0.668 0.98,0.205 1.789,0.821 2.408,1.829 0.436,0.709 0.246,1.698 -0.017,3.065 -0.05,0.261 -0.099,0.531 -0.148,0.807 1.046,-0.925 1.748,-2.309 1.748,-3.767 v -8.317 h -8.319 z m 0.061,4.379 c -0.09,-0.435 -0.388,-0.808 -0.907,-1.137 -0.28,-0.048 -1.13,0.115 -1.753,0.234 -0.678,0.129 -1.445,0.276 -2.229,0.347 -0.052,0.245 -0.077,0.494 -0.077,0.744 v 0.989 h 4.807 c 0.128,-0.307 0.25,-0.745 0.159,-1.177 z"
   id="path909" />
				</g>
			</g>
			<g
   id="g923">
				<g
   id="g917">
					<path
   d="m 1287.881,301.019 v 148.052 h -23.453 v 23.453 h -65.596 l 14.82,-9.25 v 7.336 h 48.862 v -21.54 h -9.078 v -10.989 h 10.991 v 9.076 h 21.54 V 321.649 h -7.98 z m -1.913,18.717 v -10.301 l -4.94,10.301 z m -23.453,120.259 h -7.163 v 7.163 h 7.163 z m -50.776,30.615 v -3.886 l -6.228,3.886 z"
   id="path915" />
				</g>
				<g
   id="g921">
					<path
   d="m 1280.411,420.295 v 35.178 h 0.987 c 0.262,0 0.521,0.019 0.779,0.054 0.112,-0.73 0.368,-1.422 0.847,-2.008 0.811,-0.998 2.128,-1.516 3.915,-1.542 l 0.026,1.915 c -1.192,0.017 -2.021,0.298 -2.46,0.835 -0.289,0.357 -0.431,0.835 -0.477,1.376 2.226,1.106 3.852,3.527 3.852,6.189 v 10.23 l -10.23,0.001 c -2.663,0 -5.084,-1.626 -6.188,-3.852 -0.542,0.048 -1.021,0.188 -1.378,0.478 -0.538,0.438 -0.818,1.266 -0.836,2.46 l -1.913,-0.028 c 0.027,-1.786 0.544,-3.103 1.54,-3.913 0.586,-0.478 1.279,-0.733 2.009,-0.847 -0.036,-0.255 -0.055,-0.515 -0.055,-0.777 v -0.989 h -35.179 l 1.634,-1.632 c 4.337,-4.338 6.164,-7.166 6.185,-7.194 l 0.277,-0.434 0.518,-0.008 26.577,-0.302 0.307,-27.095 0.438,-0.279 c 0.027,-0.019 2.853,-1.845 7.192,-6.183 z m -1.915,35.178 v -30.604 c -2.697,2.547 -4.624,3.983 -5.444,4.56 l -0.298,26.045 h 5.742 z m 0,1.913 h -5.754 v 5.754 h 5.754 z m 3.648,0.076 c -0.244,-0.05 -0.492,-0.076 -0.745,-0.076 h -0.987 v 4.809 c 0.308,0.127 0.75,0.25 1.186,0.155 0.432,-0.093 0.802,-0.39 1.127,-0.907 0.048,-0.279 -0.114,-1.127 -0.232,-1.752 -0.133,-0.676 -0.279,-1.444 -0.349,-2.229 z m -11.315,5.679 v -5.743 l -26.044,0.297 c -0.576,0.82 -2.013,2.747 -4.561,5.446 z m 15.139,7.468 v -8.317 c 0,-1.457 -0.702,-2.842 -1.748,-3.767 0.05,0.277 0.102,0.547 0.151,0.807 0.26,1.368 0.449,2.357 0.014,3.066 -0.619,1.009 -1.428,1.623 -2.406,1.828 -1.545,0.324 -2.873,-0.537 -3.063,-0.667 0.131,0.19 0.989,1.516 0.668,3.062 -0.205,0.979 -0.819,1.788 -1.829,2.405 -0.71,0.436 -1.699,0.248 -3.065,-0.013 -0.26,-0.05 -0.531,-0.103 -0.807,-0.15 0.924,1.043 2.309,1.747 3.768,1.747 z m -8.416,-5.555 h -4.81 v 0.989 c 0,0.251 0.027,0.5 0.077,0.743 0.784,0.071 1.552,0.218 2.229,0.347 0.625,0.121 1.473,0.285 1.753,0.235 0.52,-0.33 0.817,-0.703 0.907,-1.139 0.092,-0.43 -0.03,-0.87 -0.156,-1.175 z"
   id="path919" />
				</g>
			</g>
			<g
   id="g933">
				<g
   id="g927">
					<path
   d="m 1093.906,321.649 h -7.978 v 125.508 h 21.54 v -9.076 h 10.989 v 10.989 h -9.076 v 21.54 h 48.86 v -7.336 l 14.822,9.25 h -65.596 v -23.453 h -23.453 V 301.019 Z m -3.037,-1.913 -4.94,-10.301 v 10.301 z m 18.513,127.421 h 7.163 v -7.163 h -7.163 z m 57.001,23.453 -6.228,-3.886 v 3.886 z"
   id="path925" />
				</g>
				<g
   id="g931">
					<path
   d="m 1093.118,421.928 c 4.337,4.338 7.165,6.164 7.192,6.183 l 0.436,0.279 0.308,27.095 26.579,0.302 0.518,0.008 0.277,0.434 c 0.019,0.028 1.846,2.856 6.183,7.194 l 1.636,1.632 h -35.182 v 0.989 c 0,0.262 -0.018,0.522 -0.052,0.777 0.729,0.114 1.421,0.369 2.009,0.847 0.996,0.811 1.513,2.127 1.54,3.913 l -1.913,0.028 c -0.019,-1.194 -0.301,-2.021 -0.836,-2.46 -0.359,-0.29 -0.836,-0.429 -1.378,-0.478 -1.106,2.226 -3.526,3.852 -6.188,3.852 l -10.23,-0.001 v -10.23 c 0,-2.662 1.626,-5.083 3.852,-6.189 -0.048,-0.541 -0.188,-1.019 -0.477,-1.376 -0.438,-0.538 -1.266,-0.818 -2.46,-0.835 l 0.029,-1.915 c 1.784,0.026 3.101,0.544 3.912,1.542 0.477,0.586 0.731,1.277 0.847,2.008 0.258,-0.035 0.516,-0.054 0.779,-0.054 h 0.987 v -35.178 z m 6.025,33.545 -0.298,-26.045 c -0.82,-0.576 -2.747,-2.013 -5.446,-4.56 v 30.604 h 5.744 z m -5.745,7.668 h 5.753 v -5.754 h -5.753 z m -3.993,-3.45 c -0.12,0.625 -0.28,1.473 -0.233,1.752 0.326,0.517 0.696,0.814 1.125,0.907 0.438,0.095 0.881,-0.027 1.188,-0.155 v -4.809 h -0.987 c -0.253,0 -0.501,0.026 -0.745,0.076 -0.07,0.785 -0.217,1.553 -0.348,2.229 z m 42.264,3.45 c -2.545,-2.699 -3.981,-4.626 -4.558,-5.446 l -26.047,-0.297 v 5.743 z m -37.423,7.469 c 1.459,0 2.844,-0.704 3.768,-1.748 -0.276,0.048 -0.547,0.102 -0.807,0.151 -1.369,0.261 -2.356,0.449 -3.065,0.013 -1.01,-0.618 -1.624,-1.426 -1.829,-2.405 -0.321,-1.546 0.537,-2.872 0.668,-3.062 -0.189,0.13 -1.518,0.991 -3.063,0.667 -0.979,-0.205 -1.789,-0.819 -2.406,-1.828 -0.436,-0.709 -0.248,-1.698 0.014,-3.066 0.05,-0.26 0.102,-0.53 0.149,-0.807 -1.044,0.925 -1.746,2.31 -1.746,3.767 v 8.317 z m -0.061,-4.381 c 0.093,0.436 0.391,0.809 0.91,1.139 0.28,0.049 1.127,-0.114 1.753,-0.235 0.678,-0.128 1.445,-0.275 2.229,-0.347 0.05,-0.244 0.074,-0.492 0.074,-0.743 v -0.989 h -4.807 c -0.125,0.305 -0.247,0.745 -0.159,1.175 z"
   id="path929" />
				</g>
			</g>
		</g>
		<g
   id="g957">
			<g
   id="g939">
				<path
   d="m 1177.81,351.813 c -15.658,0 -30.36,-6.122 -41.399,-17.24 -0.795,-0.802 -0.878,-2.068 -0.201,-2.97 0.683,-0.902 1.925,-1.167 2.914,-0.621 6.284,3.468 13.424,5.302 20.646,5.302 23.601,0 42.802,-19.201 42.802,-42.802 0,-23.602 -19.201,-42.802 -42.802,-42.802 -7.222,0 -14.359,1.833 -20.646,5.302 -0.989,0.547 -2.231,0.282 -2.911,-0.621 -0.68,-0.902 -0.597,-2.167 0.201,-2.971 11.036,-11.118 25.738,-17.24 41.396,-17.24 32.165,0 58.334,26.167 58.334,58.332 0,32.165 -26.169,58.331 -58.334,58.331 z m -27.135,-11.865 c 8.143,4.776 17.442,7.321 27.135,7.321 29.658,0 53.789,-24.13 53.789,-53.787 0,-29.659 -24.131,-53.786 -53.789,-53.786 -9.692,0 -18.992,2.544 -27.133,7.319 2.984,-0.582 6.031,-0.88 9.092,-0.88 26.107,0 47.347,21.24 47.347,47.347 0,26.107 -21.239,47.347 -47.347,47.347 -3.061,10e-4 -6.108,-0.297 -9.094,-0.881 z"
   id="path937" />
			</g>
			<g
   id="g943">
				<path
   d="m 1208.127,256.869 c -0.309,0 -0.614,-0.125 -0.84,-0.372 -9.173,-10.063 -21.655,-16.338 -35.146,-17.668 -0.626,-0.062 -1.082,-0.618 -1.021,-1.242 0.061,-0.625 0.621,-1.084 1.242,-1.02 14.053,1.385 27.054,7.919 36.604,18.399 0.423,0.464 0.392,1.183 -0.072,1.605 -0.218,0.2 -0.494,0.298 -0.767,0.298 z"
   id="path941" />
			</g>
			<g
   id="g947">
				<path
   d="m 1218.712,273.706 c -0.449,0 -0.874,-0.271 -1.055,-0.714 -1.132,-2.817 -2.514,-5.562 -4.104,-8.16 -0.33,-0.535 -0.16,-1.234 0.375,-1.562 0.535,-0.329 1.233,-0.16 1.561,0.375 1.658,2.706 3.098,5.564 4.278,8.499 0.235,0.582 -0.047,1.244 -0.628,1.479 -0.14,0.056 -0.285,0.083 -0.427,0.083 z"
   id="path945" />
			</g>
			<g
   id="g951">
				<path
   d="m 1172.246,350.403 c -0.576,0 -1.07,-0.438 -1.127,-1.024 -0.061,-0.625 0.396,-1.181 1.021,-1.243 28.201,-2.779 49.467,-26.276 49.467,-54.653 0,-5.027 -0.68,-10.008 -2.019,-14.804 -0.168,-0.604 0.185,-1.231 0.788,-1.4 0.603,-0.17 1.233,0.185 1.402,0.789 1.394,4.994 2.101,10.182 2.101,15.415 0,14.287 -5.294,27.965 -14.915,38.516 -9.55,10.48 -22.551,17.014 -36.604,18.399 -0.037,0.003 -0.075,0.005 -0.114,0.005 z"
   id="path949" />
			</g>
			<g
   id="g955">
				<path
   d="m 1172.253,350.403 c -0.04,0 -0.079,-0.001 -0.112,-0.005 -13.167,-1.297 -25.567,-7.201 -34.922,-16.625 -0.399,-0.401 -0.442,-1.035 -0.099,-1.486 0.339,-0.451 0.96,-0.583 1.454,-0.31 6.453,3.561 13.781,5.443 21.194,5.443 24.228,0 43.937,-19.711 43.937,-43.938 0,-24.229 -19.709,-43.939 -43.937,-43.939 -7.413,0 -14.741,1.883 -21.194,5.443 -0.494,0.273 -1.115,0.14 -1.454,-0.311 -0.344,-0.451 -0.301,-1.084 0.099,-1.485 9.354,-9.423 21.755,-15.327 34.922,-16.625 0.621,-0.065 1.179,0.395 1.239,1.02 0.062,0.625 -0.395,1.18 -1.019,1.242 -10.178,1.003 -19.882,4.875 -27.966,11.07 4.915,-1.731 10.124,-2.627 15.373,-2.627 25.481,0 46.211,20.729 46.211,46.21 0,25.48 -20.729,46.21 -46.211,46.21 -5.249,0 -10.458,-0.897 -15.373,-2.627 8.084,6.196 17.788,10.067 27.966,11.07 0.624,0.062 1.08,0.618 1.019,1.243 -0.056,0.589 -0.551,1.027 -1.127,1.027 z"
   id="path953" />
			</g>
		</g>
	</g></g></svg>
